{
	"asset":{
		"generator":"Khronos glTF Blender I/O v3.6.27",
		"version":"2.0"
	},
	"extensionsUsed":[
		"KHR_lights_punctual",
		"KHR_materials_specular",
		"KHR_materials_ior"
	],
	"extensionsRequired":[
		"KHR_lights_punctual"
	],
	"extensions":{
		"KHR_lights_punctual":{
			"lights":[
				{
					"color":[
						1,
						1,
						1
					],
					"intensity":683,
					"type":"directional",
					"name":"Sun.004"
				}
			]
		}
	},
	"scene":0,
	"scenes":[
		{
			"name":"Scene",
			"nodes":[
				0,
				1,
				3,
				4
			]
		}
	],
	"nodes":[
		{
			"extensions":{
				"KHR_lights_punctual":{
					"light":0
				}
			},
			"name":"Sun.005",
			"rotation":[
				-0.29288560152053833,
				-0.15991750359535217,
				0.09714839607477188,
				0.9376601576805115
			],
			"scale":[
				3.523103952407837,
				3.523103713989258,
				3.5231034755706787
			],
			"translation":[
				-30.66637420654297,
				61.6515007019043,
				85.5465316772461
			]
		},
		{
			"camera":0,
			"name":"Camera.003",
			"rotation":[
				-0.10252845287322998,
				-0.19314101338386536,
				-0.020298220217227936,
				0.9755882620811462
			],
			"translation":[
				-12.055877685546875,
				41.8489990234375,
				85.83584594726562
			]
		},
		{
			"mesh":0,
			"name":"Cube.049",
			"scale":[
				0.11124198883771896,
				0.11124198883771896,
				0.11124198883771896
			],
			"translation":[
				-1.126690149307251,
				-1.1205440759658813,
				0
			]
		},
		{
			"children":[
				2
			],
			"name":"CANTINETTA-FRASSINO-GREZZO6X6.001",
			"scale":[
				8.989411354064941,
				8.989411354064941,
				8.989411354064941
			],
			"translation":[
				20.33260154724121,
				0,
				0
			]
		},
		{
			"extras":{
				"bound":1.0
			},
			"name":"Empty.018",
			"scale":[
				58.18674087524414,
				58.18674087524414,
				58.18674087524414
			],
			"translation":[
				20.02503776550293,
				20.34988784790039,
				2.734187091846252e-06
			]
		}
	],
	"cameras":[
		{
			"name":"Camera.003",
			"orthographic":{
				"xmag":51.14999008178711,
				"ymag":51.14999008178711,
				"zfar":1000,
				"znear":0.10000000149011612
			},
			"type":"orthographic"
		}
	],
	"materials":[
		{
			"doubleSided":true,
			"extensions":{
				"KHR_materials_specular":{
					"specularColorFactor":[
						0,
						0,
						0
					]
				},
				"KHR_materials_ior":{
					"ior":1.4500000476837158
				}
			},
			"name":"asse-FRASSINO",
			"normalTexture":{
				"index":0
			},
			"pbrMetallicRoughness":{
				"baseColorTexture":{
					"index":1
				},
				"metallicRoughnessTexture":{
					"index":2
				}
			}
		},
		{
			"doubleSided":true,
			"extensions":{
				"KHR_materials_specular":{
					"specularColorFactor":[
						0,
						0,
						0
					]
				},
				"KHR_materials_ior":{
					"ior":1.4500000476837158
				}
			},
			"name":"piolo-FRASSINO",
			"normalTexture":{
				"index":3
			},
			"pbrMetallicRoughness":{
				"baseColorTexture":{
					"index":4
				},
				"metallicRoughnessTexture":{
					"index":5
				}
			}
		}
	],
	"meshes":[
		{
			"name":"Cube.012",
			"primitives":[
				{
					"attributes":{
						"POSITION":0,
						"NORMAL":1,
						"TEXCOORD_0":2
					},
					"indices":3,
					"material":0
				},
				{
					"attributes":{
						"POSITION":4,
						"NORMAL":5,
						"TEXCOORD_0":6
					},
					"indices":7,
					"material":1
				}
			]
		}
	],
	"textures":[
		{
			"sampler":0,
			"source":0
		},
		{
			"sampler":0,
			"source":1
		},
		{
			"sampler":0,
			"source":2
		},
		{
			"sampler":0,
			"source":3
		},
		{
			"sampler":0,
			"source":4
		},
		{
			"sampler":0,
			"source":5
		}
	],
	"images":[
		{
			"mimeType":"image/jpeg",
			"name":"CANT_asse_Normal",
			"uri":"textures/CANT_asse_Normal.jpg"
		},
		{
			"mimeType":"image/jpeg",
			"name":"CANT_asse_BaseColor",
			"uri":"textures/CANT_asse_BaseColor.jpg"
		},
		{
			"mimeType":"image/jpeg",
			"name":"CANT_asse_Metallic-CANT_piolo_Roughness",
			"uri":"textures/CANT_asse_Metallic-CANT_piolo_Roughness.jpg"
		},
		{
			"mimeType":"image/jpeg",
			"name":"CANT_piolo_Normal",
			"uri":"textures/CANT_piolo_Normal.jpg"
		},
		{
			"mimeType":"image/jpeg",
			"name":"CANT_piolo_BaseColor",
			"uri":"textures/CANT_piolo_BaseColor.jpg"
		},
		{
			"mimeType":"image/jpeg",
			"name":"CANT_piolo_Metallic-CANT_piolo_Roughness",
			"uri":"textures/CANT_piolo_Metallic-CANT_piolo_Roughness.jpg"
		}
	],
	"accessors":[
		{
			"bufferView":0,
			"componentType":5126,
			"count":27307,
			"max":[
				43.49543380737305,
				63.421356201171875,
				25.807384490966797
			],
			"min":[
				-23.332679748535156,
				-2.999725580215454,
				-25.807384490966797
			],
			"type":"VEC3"
		},
		{
			"bufferView":1,
			"componentType":5126,
			"count":27307,
			"type":"VEC3"
		},
		{
			"bufferView":2,
			"componentType":5126,
			"count":27307,
			"type":"VEC2"
		},
		{
			"bufferView":3,
			"componentType":5123,
			"count":73836,
			"type":"SCALAR"
		},
		{
			"bufferView":4,
			"componentType":5126,
			"count":6240,
			"max":[
				41.46528625488281,
				61.41853332519531,
				21.104074478149414
			],
			"min":[
				-21.34688949584961,
				-1.0728120803833008,
				-21.12803077697754
			],
			"type":"VEC3"
		},
		{
			"bufferView":5,
			"componentType":5126,
			"count":6240,
			"type":"VEC3"
		},
		{
			"bufferView":6,
			"componentType":5126,
			"count":6240,
			"type":"VEC2"
		},
		{
			"bufferView":7,
			"componentType":5123,
			"count":17856,
			"type":"SCALAR"
		}
	],
	"bufferViews":[
		{
			"buffer":0,
			"byteLength":327684,
			"byteOffset":0,
			"target":34962
		},
		{
			"buffer":0,
			"byteLength":327684,
			"byteOffset":327684,
			"target":34962
		},
		{
			"buffer":0,
			"byteLength":218456,
			"byteOffset":655368,
			"target":34962
		},
		{
			"buffer":0,
			"byteLength":147672,
			"byteOffset":873824,
			"target":34963
		},
		{
			"buffer":0,
			"byteLength":74880,
			"byteOffset":1021496,
			"target":34962
		},
		{
			"buffer":0,
			"byteLength":74880,
			"byteOffset":1096376,
			"target":34962
		},
		{
			"buffer":0,
			"byteLength":49920,
			"byteOffset":1171256,
			"target":34962
		},
		{
			"buffer":0,
			"byteLength":35712,
			"byteOffset":1221176,
			"target":34963
		}
	],
	"samplers":[
		{
			"magFilter":9729,
			"minFilter":9987
		}
	],
	"buffers":[
		{
			"byteLength":1256888,
			"uri":"frassino-grezzo.bin"
		}
	]
}
