{
	"asset":{
		"generator":"Khronos glTF Blender I/O v3.6.27",
		"version":"2.0"
	},
	"extensionsUsed":[
		"KHR_lights_punctual",
		"KHR_materials_specular",
		"KHR_materials_ior"
	],
	"extensionsRequired":[
		"KHR_lights_punctual"
	],
	"extensions":{
		"KHR_lights_punctual":{
			"lights":[
				{
					"color":[
						1,
						1,
						1
					],
					"intensity":683,
					"type":"directional",
					"name":"Sun.001"
				}
			]
		}
	},
	"scene":0,
	"scenes":[
		{
			"name":"Scene",
			"nodes":[
				0,
				1,
				2,
				67
			]
		}
	],
	"nodes":[
		{
			"extras":{
				"bound":1.0
			},
			"name":"Empty.017",
			"scale":[
				58.18674087524414,
				58.18674087524414,
				58.18674087524414
			],
			"translation":[
				20.02503776550293,
				20.34988784790039,
				2.734187091846252e-06
			]
		},
		{
			"extensions":{
				"KHR_lights_punctual":{
					"light":0
				}
			},
			"name":"Sun.001",
			"rotation":[
				-0.29288560152053833,
				-0.15991750359535217,
				0.09714839607477188,
				0.9376601576805115
			],
			"scale":[
				3.523103952407837,
				3.523103713989258,
				3.5231034755706787
			],
			"translation":[
				-30.66637420654297,
				61.6515007019043,
				85.5465316772461
			]
		},
		{
			"camera":0,
			"name":"Camera",
			"rotation":[
				-0.10252845287322998,
				-0.19314101338386536,
				-0.020298220217227936,
				0.9755882620811462
			],
			"translation":[
				-12.055877685546875,
				41.8489990234375,
				85.83584594726562
			]
		},
		{
			"mesh":0,
			"name":"Cube.016",
			"scale":[
				0.11124198883771896,
				0.11124198883771896,
				0.11124198883771896
			],
			"translation":[
				3.3780858516693115,
				-1.1205440759658813,
				0
			]
		},
		{
			"mesh":0,
			"name":"Cube.017",
			"scale":[
				0.11124198883771896,
				0.11124198883771896,
				0.11124198883771896
			],
			"translation":[
				1.1266894340515137,
				-1.1205440759658813,
				0
			]
		},
		{
			"mesh":0,
			"name":"Cube.019",
			"scale":[
				0.11124198883771896,
				0.11124198883771896,
				0.11124198883771896
			],
			"translation":[
				1.1266894340515137,
				1.1205440759658813,
				0
			]
		},
		{
			"mesh":0,
			"name":"Cube.020",
			"scale":[
				0.11124198883771896,
				0.11124198883771896,
				0.11124198883771896
			],
			"translation":[
				-3.3885293006896973,
				3.3576557636260986,
				0
			]
		},
		{
			"mesh":0,
			"name":"Cube.022",
			"scale":[
				0.11124198883771896,
				0.11124198883771896,
				0.11124198883771896
			],
			"translation":[
				3.3780858516693115,
				1.1205440759658813,
				0
			]
		},
		{
			"mesh":0,
			"name":"Cube.024",
			"scale":[
				0.11124198883771896,
				0.11124198883771896,
				0.11124198883771896
			],
			"translation":[
				-1.135149598121643,
				3.3576557636260986,
				0
			]
		},
		{
			"mesh":0,
			"name":"Cube.027",
			"scale":[
				0.11124198883771896,
				0.11124198883771896,
				0.11124198883771896
			],
			"translation":[
				1.1266894340515137,
				3.3576557636260986,
				0
			]
		},
		{
			"mesh":0,
			"name":"Cube.039",
			"scale":[
				0.11124198883771896,
				0.11124198883771896,
				0.11124198883771896
			],
			"translation":[
				3.3780858516693115,
				3.3576557636260986,
				0
			]
		},
		{
			"mesh":0,
			"name":"Cube.041",
			"scale":[
				0.11124198883771896,
				0.11124198883771896,
				0.11124198883771896
			],
			"translation":[
				-3.3885293006896973,
				5.600699424743652,
				0
			]
		},
		{
			"mesh":0,
			"name":"Cube.042",
			"scale":[
				0.11124198883771896,
				0.11124198883771896,
				0.11124198883771896
			],
			"translation":[
				-3.3885293006896973,
				-1.1205440759658813,
				0
			]
		},
		{
			"mesh":0,
			"name":"Cube.043",
			"scale":[
				0.11124198883771896,
				0.11124198883771896,
				0.11124198883771896
			],
			"translation":[
				-1.135149598121643,
				5.600699424743652,
				0
			]
		},
		{
			"mesh":0,
			"name":"Cube.044",
			"scale":[
				0.11124198883771896,
				0.11124198883771896,
				0.11124198883771896
			],
			"translation":[
				-1.126690149307251,
				-1.1205440759658813,
				0
			]
		},
		{
			"mesh":0,
			"name":"Cube.045",
			"scale":[
				0.11124198883771896,
				0.11124198883771896,
				0.11124198883771896
			],
			"translation":[
				1.1266894340515137,
				5.600699424743652,
				0
			]
		},
		{
			"mesh":0,
			"name":"Cube.046",
			"scale":[
				0.11124198883771896,
				0.11124198883771896,
				0.11124198883771896
			],
			"translation":[
				3.3780858516693115,
				5.600699424743652,
				0
			]
		},
		{
			"mesh":0,
			"name":"Cube.070",
			"scale":[
				0.11124198883771896,
				0.11124198883771896,
				0.11124198883771896
			],
			"translation":[
				-3.3885293006896973,
				1.1205440759658813,
				0
			]
		},
		{
			"mesh":0,
			"name":"Cube.073",
			"scale":[
				0.11124198883771896,
				0.11124198883771896,
				0.11124198883771896
			],
			"translation":[
				-1.135149598121643,
				1.1205440759658813,
				0
			]
		},
		{
			"mesh":1,
			"name":"Cylinder.020",
			"rotation":[
				0,
				0,
				-0.7071068286895752,
				0.7071068286895752
			],
			"scale":[
				0.11124198883771896,
				1.2236618995666504,
				0.11124198883771896
			],
			"translation":[
				-0.01585984230041504,
				-1.1203782558441162,
				2.236417293548584
			]
		},
		{
			"mesh":1,
			"name":"Cylinder.021",
			"scale":[
				0.11124198883771896,
				1.2236618995666504,
				0.11124198883771896
			],
			"translation":[
				-1.1231303215026855,
				-0.016223935410380363,
				-2.239082098007202
			]
		},
		{
			"mesh":1,
			"name":"Cylinder.022",
			"rotation":[
				0,
				0,
				-0.7071068286895752,
				0.7071068286895752
			],
			"scale":[
				0.11124198883771896,
				1.2236618995666504,
				0.11124198883771896
			],
			"translation":[
				-0.01585984230041504,
				1.1203782558441162,
				-2.237161159515381
			]
		},
		{
			"mesh":1,
			"name":"Cylinder.023",
			"scale":[
				0.11124198883771896,
				1.2236618995666504,
				0.11124198883771896
			],
			"translation":[
				-1.1231303215026855,
				-0.016223935410380363,
				2.2344961166381836
			]
		},
		{
			"mesh":1,
			"name":"Cylinder.025",
			"rotation":[
				0,
				0,
				-0.7071068286895752,
				0.7071068286895752
			],
			"scale":[
				0.11124198883771896,
				1.2236618995666504,
				0.11124198883771896
			],
			"translation":[
				-0.01585984230041504,
				1.1203782558441162,
				2.236417293548584
			]
		},
		{
			"mesh":1,
			"name":"Cylinder.026",
			"rotation":[
				0,
				0,
				-0.7071068286895752,
				0.7071068286895752
			],
			"scale":[
				0.11124198883771896,
				1.2236618995666504,
				0.11124198883771896
			],
			"translation":[
				-0.01585984230041504,
				-1.1203782558441162,
				-2.237161159515381
			]
		},
		{
			"mesh":1,
			"name":"Cylinder.027",
			"scale":[
				0.11124198883771896,
				1.2236618995666504,
				0.11124198883771896
			],
			"translation":[
				3.374748945236206,
				-0.016223935410380363,
				2.2344961166381836
			]
		},
		{
			"mesh":1,
			"name":"Cylinder.028",
			"rotation":[
				0,
				0,
				-0.7071068286895752,
				0.7071068286895752
			],
			"scale":[
				0.11124198883771896,
				1.2236618995666504,
				0.11124198883771896
			],
			"translation":[
				2.235536813735962,
				-1.1203782558441162,
				2.236417293548584
			]
		},
		{
			"mesh":1,
			"name":"Cylinder.029",
			"scale":[
				0.11124198883771896,
				1.2236618995666504,
				0.11124198883771896
			],
			"translation":[
				1.1282665729522705,
				-0.016223935410380363,
				-2.239082098007202
			]
		},
		{
			"mesh":1,
			"name":"Cylinder.030",
			"rotation":[
				0,
				0,
				-0.7071068286895752,
				0.7071068286895752
			],
			"scale":[
				0.11124198883771896,
				1.2236618995666504,
				0.11124198883771896
			],
			"translation":[
				2.235536813735962,
				1.1203782558441162,
				-2.237161159515381
			]
		},
		{
			"mesh":1,
			"name":"Cylinder.032",
			"scale":[
				0.11124198883771896,
				1.2236618995666504,
				0.11124198883771896
			],
			"translation":[
				1.1282665729522705,
				-0.016223935410380363,
				2.2344961166381836
			]
		},
		{
			"mesh":1,
			"name":"Cylinder.033",
			"scale":[
				0.11124198883771896,
				1.2236618995666504,
				0.11124198883771896
			],
			"translation":[
				3.3745267391204834,
				-0.016223935410380363,
				-2.239082098007202
			]
		},
		{
			"mesh":1,
			"name":"Cylinder.034",
			"rotation":[
				0,
				0,
				-0.7071068286895752,
				0.7071068286895752
			],
			"scale":[
				0.11124198883771896,
				1.2236618995666504,
				0.11124198883771896
			],
			"translation":[
				2.235536813735962,
				1.1203782558441162,
				2.236417293548584
			]
		},
		{
			"mesh":1,
			"name":"Cylinder.035",
			"rotation":[
				0,
				0,
				-0.7071068286895752,
				0.7071068286895752
			],
			"scale":[
				0.11124198883771896,
				1.2236618995666504,
				0.11124198883771896
			],
			"translation":[
				2.235536813735962,
				-1.1203782558441162,
				-2.237161159515381
			]
		},
		{
			"mesh":1,
			"name":"Cylinder.038",
			"scale":[
				0.11124198883771896,
				1.2236618995666504,
				0.11124198883771896
			],
			"translation":[
				-3.3849692344665527,
				2.2208876609802246,
				-2.239082098007202
			]
		},
		{
			"mesh":1,
			"name":"Cylinder.040",
			"rotation":[
				0,
				0,
				-0.7071068286895752,
				0.7071068286895752
			],
			"scale":[
				0.11124198883771896,
				1.2236618995666504,
				0.11124198883771896
			],
			"translation":[
				-2.2776987552642822,
				3.357489824295044,
				-2.237161159515381
			]
		},
		{
			"mesh":1,
			"name":"Cylinder.041",
			"scale":[
				0.11124198883771896,
				1.2236618995666504,
				0.11124198883771896
			],
			"translation":[
				-3.3849692344665527,
				2.2208876609802246,
				2.2344961166381836
			]
		},
		{
			"mesh":1,
			"name":"Cylinder.074",
			"rotation":[
				0,
				0,
				-0.7071068286895752,
				0.7071068286895752
			],
			"scale":[
				0.11124198883771896,
				1.2236618995666504,
				0.11124198883771896
			],
			"translation":[
				-2.2776987552642822,
				3.357489824295044,
				2.236417293548584
			]
		},
		{
			"mesh":1,
			"name":"Cylinder.078",
			"scale":[
				0.11124198883771896,
				1.2236618995666504,
				0.11124198883771896
			],
			"translation":[
				-1.1231303215026855,
				2.2208876609802246,
				-2.239082098007202
			]
		},
		{
			"mesh":1,
			"name":"Cylinder.079",
			"rotation":[
				0,
				0,
				-0.7071068286895752,
				0.7071068286895752
			],
			"scale":[
				0.11124198883771896,
				1.2236618995666504,
				0.11124198883771896
			],
			"translation":[
				-0.01585984230041504,
				3.357489824295044,
				-2.237161159515381
			]
		},
		{
			"mesh":1,
			"name":"Cylinder.080",
			"scale":[
				0.11124198883771896,
				1.2236618995666504,
				0.11124198883771896
			],
			"translation":[
				-1.1231303215026855,
				2.2208876609802246,
				2.2344961166381836
			]
		},
		{
			"mesh":1,
			"name":"Cylinder.082",
			"rotation":[
				0,
				0,
				-0.7071068286895752,
				0.7071068286895752
			],
			"scale":[
				0.11124198883771896,
				1.2236618995666504,
				0.11124198883771896
			],
			"translation":[
				-0.01585984230041504,
				3.357489824295044,
				2.236417293548584
			]
		},
		{
			"mesh":1,
			"name":"Cylinder.084",
			"scale":[
				0.11124198883771896,
				1.2236618995666504,
				0.11124198883771896
			],
			"translation":[
				3.374748945236206,
				2.2208876609802246,
				2.2344961166381836
			]
		},
		{
			"mesh":1,
			"name":"Cylinder.085",
			"rotation":[
				0,
				0,
				-0.7071068286895752,
				0.7071068286895752
			],
			"scale":[
				0.11124198883771896,
				1.2236618995666504,
				0.11124198883771896
			],
			"translation":[
				-2.2776987552642822,
				-1.1203782558441162,
				2.236417293548584
			]
		},
		{
			"mesh":1,
			"name":"Cylinder.086",
			"scale":[
				0.11124198883771896,
				1.2236618995666504,
				0.11124198883771896
			],
			"translation":[
				1.1282665729522705,
				2.2208876609802246,
				-2.239082098007202
			]
		},
		{
			"mesh":1,
			"name":"Cylinder.087",
			"rotation":[
				0,
				0,
				-0.7071068286895752,
				0.7071068286895752
			],
			"scale":[
				0.11124198883771896,
				1.2236618995666504,
				0.11124198883771896
			],
			"translation":[
				2.235536813735962,
				3.357489824295044,
				-2.237161159515381
			]
		},
		{
			"mesh":1,
			"name":"Cylinder.088",
			"scale":[
				0.11124198883771896,
				1.2236618995666504,
				0.11124198883771896
			],
			"translation":[
				1.1282665729522705,
				2.2208876609802246,
				2.2344961166381836
			]
		},
		{
			"mesh":1,
			"name":"Cylinder.089",
			"scale":[
				0.11124198883771896,
				1.2236618995666504,
				0.11124198883771896
			],
			"translation":[
				3.3745267391204834,
				2.2208876609802246,
				-2.239082098007202
			]
		},
		{
			"mesh":1,
			"name":"Cylinder.090",
			"rotation":[
				0,
				0,
				-0.7071068286895752,
				0.7071068286895752
			],
			"scale":[
				0.11124198883771896,
				1.2236618995666504,
				0.11124198883771896
			],
			"translation":[
				2.235536813735962,
				3.357489824295044,
				2.236417293548584
			]
		},
		{
			"mesh":1,
			"name":"Cylinder.091",
			"rotation":[
				0,
				0,
				-0.7071068286895752,
				0.7071068286895752
			],
			"scale":[
				0.11124198883771896,
				1.2236618995666504,
				0.11124198883771896
			],
			"translation":[
				-2.2776987552642822,
				-1.1203782558441162,
				-2.237161159515381
			]
		},
		{
			"mesh":1,
			"name":"Cylinder.093",
			"scale":[
				0.11124198883771896,
				1.2236618995666504,
				0.11124198883771896
			],
			"translation":[
				-3.3849692344665527,
				4.463931560516357,
				-2.239082098007202
			]
		},
		{
			"mesh":1,
			"name":"Cylinder.094",
			"rotation":[
				0,
				0,
				-0.7071068286895752,
				0.7071068286895752
			],
			"scale":[
				0.11124198883771896,
				1.2236618995666504,
				0.11124198883771896
			],
			"translation":[
				-2.2776987552642822,
				5.600533485412598,
				-2.237161159515381
			]
		},
		{
			"mesh":1,
			"name":"Cylinder.095",
			"scale":[
				0.11124198883771896,
				1.2236618995666504,
				0.11124198883771896
			],
			"translation":[
				-3.3849692344665527,
				4.463931560516357,
				2.2344961166381836
			]
		},
		{
			"mesh":1,
			"name":"Cylinder.096",
			"scale":[
				0.11124198883771896,
				1.2236618995666504,
				0.11124198883771896
			],
			"translation":[
				-1.1387094259262085,
				4.463931560516357,
				-2.239082098007202
			]
		},
		{
			"mesh":1,
			"name":"Cylinder.097",
			"rotation":[
				0,
				0,
				-0.7071068286895752,
				0.7071068286895752
			],
			"scale":[
				0.11124198883771896,
				1.2236618995666504,
				0.11124198883771896
			],
			"translation":[
				-2.2776987552642822,
				5.600533485412598,
				2.236417293548584
			]
		},
		{
			"mesh":1,
			"name":"Cylinder.100",
			"rotation":[
				0,
				0,
				-0.7071068286895752,
				0.7071068286895752
			],
			"scale":[
				0.11124198883771896,
				1.2236618995666504,
				0.11124198883771896
			],
			"translation":[
				-0.01585984230041504,
				5.600533485412598,
				-2.237161159515381
			]
		},
		{
			"mesh":1,
			"name":"Cylinder.101",
			"scale":[
				0.11124198883771896,
				1.2236618995666504,
				0.11124198883771896
			],
			"translation":[
				-1.1231303215026855,
				4.463931560516357,
				2.2344961166381836
			]
		},
		{
			"mesh":1,
			"name":"Cylinder.103",
			"rotation":[
				0,
				0,
				-0.7071068286895752,
				0.7071068286895752
			],
			"scale":[
				0.11124198883771896,
				1.2236618995666504,
				0.11124198883771896
			],
			"translation":[
				-0.01585984230041504,
				5.600533485412598,
				2.236417293548584
			]
		},
		{
			"mesh":1,
			"name":"Cylinder.104",
			"scale":[
				0.11124198883771896,
				1.2236618995666504,
				0.11124198883771896
			],
			"translation":[
				3.374748945236206,
				4.463931560516357,
				2.2344961166381836
			]
		},
		{
			"mesh":1,
			"name":"Cylinder.105",
			"scale":[
				0.11124198883771896,
				1.2236618995666504,
				0.11124198883771896
			],
			"translation":[
				1.1282665729522705,
				4.463931560516357,
				-2.239082098007202
			]
		},
		{
			"mesh":1,
			"name":"Cylinder.106",
			"rotation":[
				0,
				0,
				-0.7071068286895752,
				0.7071068286895752
			],
			"scale":[
				0.11124198883771896,
				1.2236618995666504,
				0.11124198883771896
			],
			"translation":[
				2.235536813735962,
				5.600533485412598,
				-2.237161159515381
			]
		},
		{
			"mesh":1,
			"name":"Cylinder.107",
			"scale":[
				0.11124198883771896,
				1.2236618995666504,
				0.11124198883771896
			],
			"translation":[
				1.1282665729522705,
				4.463931560516357,
				2.2344961166381836
			]
		},
		{
			"mesh":1,
			"name":"Cylinder.108",
			"scale":[
				0.11124198883771896,
				1.2236618995666504,
				0.11124198883771896
			],
			"translation":[
				3.3745267391204834,
				4.463931560516357,
				-2.239082098007202
			]
		},
		{
			"mesh":1,
			"name":"Cylinder.109",
			"rotation":[
				0,
				0,
				-0.7071068286895752,
				0.7071068286895752
			],
			"scale":[
				0.11124198883771896,
				1.2236618995666504,
				0.11124198883771896
			],
			"translation":[
				2.235536813735962,
				5.600533485412598,
				2.236417293548584
			]
		},
		{
			"mesh":1,
			"name":"Cylinder.172",
			"scale":[
				0.11124198883771896,
				1.2236618995666504,
				0.11124198883771896
			],
			"translation":[
				-3.3849692344665527,
				-0.016223935410380363,
				-2.239082098007202
			]
		},
		{
			"mesh":1,
			"name":"Cylinder.173",
			"rotation":[
				0,
				0,
				-0.7071068286895752,
				0.7071068286895752
			],
			"scale":[
				0.11124198883771896,
				1.2236618995666504,
				0.11124198883771896
			],
			"translation":[
				-2.2776987552642822,
				1.1203782558441162,
				-2.237161159515381
			]
		},
		{
			"mesh":1,
			"name":"Cylinder.174",
			"scale":[
				0.11124198883771896,
				1.2236618995666504,
				0.11124198883771896
			],
			"translation":[
				-3.3849692344665527,
				-0.016223935410380363,
				2.2344961166381836
			]
		},
		{
			"mesh":1,
			"name":"Cylinder.176",
			"rotation":[
				0,
				0,
				-0.7071068286895752,
				0.7071068286895752
			],
			"scale":[
				0.11124198883771896,
				1.2236618995666504,
				0.11124198883771896
			],
			"translation":[
				-2.2776987552642822,
				1.1203782558441162,
				2.236417293548584
			]
		},
		{
			"children":[
				3,
				4,
				5,
				6,
				7,
				8,
				9,
				10,
				11,
				12,
				13,
				14,
				15,
				16,
				17,
				18,
				19,
				20,
				21,
				22,
				23,
				24,
				25,
				26,
				27,
				28,
				29,
				30,
				31,
				32,
				33,
				34,
				35,
				36,
				37,
				38,
				39,
				40,
				41,
				42,
				43,
				44,
				45,
				46,
				47,
				48,
				49,
				50,
				51,
				52,
				53,
				54,
				55,
				56,
				57,
				58,
				59,
				60,
				61,
				62,
				63,
				64,
				65,
				66
			],
			"name":"CANTINETTA-FRASSINO-GREZZO6X6",
			"scale":[
				8.989411354064941,
				8.989411354064941,
				8.989411354064941
			],
			"translation":[
				20.33260154724121,
				0,
				0
			]
		}
	],
	"cameras":[
		{
			"name":"Camera",
			"orthographic":{
				"xmag":51.14999008178711,
				"ymag":51.14999008178711,
				"zfar":1000,
				"znear":0.10000000149011612
			},
			"type":"orthographic"
		}
	],
	"materials":[
		{
			"doubleSided":true,
			"extensions":{
				"KHR_materials_specular":{
					"specularColorFactor":[
						0,
						0,
						0
					]
				},
				"KHR_materials_ior":{
					"ior":1.4500000476837158
				}
			},
			"name":"asse-FRASSINO",
			"normalTexture":{
				"index":0
			},
			"pbrMetallicRoughness":{
				"baseColorTexture":{
					"index":1
				},
				"metallicRoughnessTexture":{
					"index":2
				}
			}
		},
		{
			"doubleSided":true,
			"extensions":{
				"KHR_materials_specular":{
					"specularColorFactor":[
						0,
						0,
						0
					]
				},
				"KHR_materials_ior":{
					"ior":1.4500000476837158
				}
			},
			"name":"piolo-FRASSINO",
			"normalTexture":{
				"index":3
			},
			"pbrMetallicRoughness":{
				"baseColorTexture":{
					"index":4
				},
				"metallicRoughnessTexture":{
					"index":5
				}
			}
		}
	],
	"meshes":[
		{
			"name":"Cube.011",
			"primitives":[
				{
					"attributes":{
						"POSITION":0,
						"NORMAL":1,
						"TEXCOORD_0":2,
						"TANGENT":3
					},
					"indices":4,
					"material":0
				}
			]
		},
		{
			"name":"Cylinder.010",
			"primitives":[
				{
					"attributes":{
						"POSITION":5,
						"NORMAL":6,
						"TEXCOORD_0":7
					},
					"indices":8,
					"material":1
				}
			]
		}
	],
	"textures":[
		{
			"sampler":0,
			"source":0
		},
		{
			"sampler":0,
			"source":1
		},
		{
			"sampler":0,
			"source":2
		},
		{
			"sampler":0,
			"source":3
		},
		{
			"sampler":0,
			"source":4
		},
		{
			"sampler":0,
			"source":5
		}
	],
	"images":[
		{
			"mimeType":"image/png",
			"name":"CANT_asse_Normal",
			"uri":"textures/CANT_asse_Normal.png"
		},
		{
			"mimeType":"image/png",
			"name":"CANT_asse_BaseColor",
			"uri":"textures/CANT_asse_BaseColor.png"
		},
		{
			"mimeType":"image/png",
			"name":"CANT_asse_Metallic-CANT_piolo_Roughness",
			"uri":"textures/CANT_asse_Metallic-CANT_piolo_Roughness.png"
		},
		{
			"mimeType":"image/png",
			"name":"CANT_piolo_Normal",
			"uri":"textures/CANT_piolo_Normal.png"
		},
		{
			"mimeType":"image/png",
			"name":"CANT_piolo_BaseColor",
			"uri":"textures/CANT_piolo_BaseColor.png"
		},
		{
			"mimeType":"image/png",
			"name":"CANT_piolo_Metallic-CANT_piolo_Roughness",
			"uri":"textures/CANT_piolo_Metallic-CANT_piolo_Roughness.png"
		}
	],
	"accessors":[
		{
			"bufferView":0,
			"componentType":5126,
			"count":13066,
			"max":[
				3.000000476837158,
				3.000000476837158,
				25.807907104492188
			],
			"min":[
				-3.000000476837158,
				-3.000000476837158,
				-25.807907104492188
			],
			"type":"VEC3"
		},
		{
			"bufferView":1,
			"componentType":5126,
			"count":13066,
			"type":"VEC3"
		},
		{
			"bufferView":2,
			"componentType":5126,
			"count":13066,
			"type":"VEC2"
		},
		{
			"bufferView":3,
			"componentType":5126,
			"count":13066,
			"type":"VEC4"
		},
		{
			"bufferView":4,
			"componentType":5123,
			"count":46872,
			"type":"SCALAR"
		},
		{
			"bufferView":5,
			"componentType":5126,
			"count":130,
			"max":[
				1,
				1,
				1
			],
			"min":[
				-1,
				-1,
				-1
			],
			"type":"VEC3"
		},
		{
			"bufferView":6,
			"componentType":5126,
			"count":130,
			"type":"VEC3"
		},
		{
			"bufferView":7,
			"componentType":5126,
			"count":130,
			"type":"VEC2"
		},
		{
			"bufferView":8,
			"componentType":5123,
			"count":372,
			"type":"SCALAR"
		}
	],
	"bufferViews":[
		{
			"buffer":0,
			"byteLength":156792,
			"byteOffset":0,
			"target":34962
		},
		{
			"buffer":0,
			"byteLength":156792,
			"byteOffset":156792,
			"target":34962
		},
		{
			"buffer":0,
			"byteLength":104528,
			"byteOffset":313584,
			"target":34962
		},
		{
			"buffer":0,
			"byteLength":209056,
			"byteOffset":418112,
			"target":34962
		},
		{
			"buffer":0,
			"byteLength":93744,
			"byteOffset":627168,
			"target":34963
		},
		{
			"buffer":0,
			"byteLength":1560,
			"byteOffset":720912,
			"target":34962
		},
		{
			"buffer":0,
			"byteLength":1560,
			"byteOffset":722472,
			"target":34962
		},
		{
			"buffer":0,
			"byteLength":1040,
			"byteOffset":724032,
			"target":34962
		},
		{
			"buffer":0,
			"byteLength":744,
			"byteOffset":725072,
			"target":34963
		}
	],
	"samplers":[
		{
			"magFilter":9729,
			"minFilter":9987
		}
	],
	"buffers":[
		{
			"byteLength":725816,
			"uri":"frassino-grezzo.bin"
		}
	]
}
